#!OML:ASF E:/inclinewalkrobotboard/Project1/Captureday1/Session1/subject1.ASF
:FULLY-SPECIFIED
:DEGREES
252
root 0 0 0 -2.857870599474746 -4.122843003372506 0.2963300346899928
lowerback 6.897531883636399 1.681919862001644 -1.725931036625607
upperback 0.907875325100205 2.1287523700751536 -0.5587024176497976
thorax -2.9468090243481955 1.0827148492544705 0.24286459575384034
lowerneck -9.228922453299642 -4.687299673363341 -5.671001779188775
upperneck 22.77198354692 -7.143646613853328 6.567135625538252
head 8.890725671124247 -3.221771038897423 2.3680061827329966
rclavicle -5.1073600834831335E-15 2.8880042304848308E-15
rhumerus -9.507384078664185 7.977239357040616 -78.02122578049655
rradius 62.738001346995404
rwrist -21.070651172107908
rhand -41.0657467379396 12.943100768872712
rfingers 7.125019999999954
rthumb -13.952999118836228 -16.535654697327328
lclavicle -7.071957281853652E-15 2.5427735271171905E-15
lhumerus -33.018083620358894 13.431439647200651 73.66265488098064
lradius 23.980541285404115
lwrist -5.901153698965974
lhand -25.717407207186525 21.583443346769826
lfingers 7.12501999999996
lthumb 0.8233584969959408 51.5407782389493
rfemur 3.166909286499729 8.05099561985374 35.27489082914943
rtibia 26.527848421284148
rfoot -22.226069673804723 -8.21954450989862
rtoes 5.414317428585393
lfemur -33.14543672896248 1.5743555981298485 -11.83594140963947
ltibia 44.48788936132165
lfoot -6.857420536358841 0.025047368920713353
ltoes -5.121133286697963
253
root 0 0 0 -2.4680331964104156 -3.91417877913704 0.4108319188847232
lowerback 7.243446641627426 1.6355282600146597 -2.1940500084496866
upperback 1.470354585044393 2.047710613680061 -0.2673342909272237
thorax -2.5601816810163944 1.061384572183604 0.8240139862305847
lowerneck -9.260763306068762 -5.19728424224223 -6.138052939657467
upperneck 27.74683996882952 -8.06093857355861 6.2244248605621975
head 10.533291061420783 -3.6627472012441844 2.1389215356340388
rclavicle -3.381692842926936E-15 2.420106676024099E-15
rhumerus -10.60235133176846 7.038815974042424 -79.17396867766502
rradius 58.25807885064509
rwrist -21.260417834814113
rhand -41.4798183323942 14.078489605366684
rfingers 7.125019999999956
rthumb -14.358299731911853 -15.380337207648635
lclavicle -6.376393420172772E-15 2.266828549558748E-15
lhumerus -33.09617407257842 13.660726930401456 73.47137263056186
lradius 24.03242605275597
lwrist -5.813566357222544
lhand -26.02940870997038 21.460115161923582
lfingers 7.125019999999958
lthumb 0.5233370611907472 51.4186265121158
rfemur 4.641132023816983 8.276190883622323 35.10470093673103
rtibia 25.83338646095403
rfoot -22.209888123583557 -8.592267692419444
rtoes 3.918716309984184
lfemur -34.54320515249813 0.28691875884178053 -11.5566422245226
ltibia 35.86284627167064
lfoot -7.195271098588781 0.7028897190562908
ltoes -4.508556993944309
254
root 0 0 0 -2.216804826940991 -3.8083350584018816 0.4828660342909465
lowerback 7.455451496229742 1.6133133189816053 -2.443647614361681
upperback 1.8199546904836694 2.0060277576549246 -0.1219808827194111
thorax -2.3183308278758386 1.0525116748642682 1.1248253917604463
lowerneck -9.140122876347348 -5.465458253402486 -6.402949568061528
upperneck 30.127865066024054 -8.53752494554887 6.15021225850303
head 11.309712130712525 -3.8943408490332576 2.061034802813561
rclavicle -2.0541570554752453E-15 2.032844084266562E-15
rhumerus -10.602846858215901 5.619771093276672 -79.74862934713866
rradius 54.65337088070945
rwrist -21.104533614911887
rhand -41.84480151298254 15.000163669413316
rfingers 7.125019999999956
rthumb -14.706665797542328 -14.436713338167456
lclavicle -5.910301457810621E-15 2.0915257353385194E-15
lhumerus -33.045631653432125 13.803271486505931 73.47924187321503
lradius 24.09501471812069
lwrist -5.7260074288866525
lhand -26.204548733270688 21.36383603692261
lfingers 7.125019999999958
lthumb 0.3552537520992276 51.32303773953596
rfemur 6.048564987960141 8.377441211894435 35.11111473279217
rtibia 25.937783497453744
rfoot -21.72270707398707 -8.30316427614151
rtoes 2.004699664404128
lfemur -34.572925032870856 -0.49490829183141294 -11.966019799005267
ltibia 30.802249053189705
lfoot -6.229049056806766 -0.41312202652565766
ltoes -3.815218777736386
255
root 0 0 0 -2.1393829967202933 -3.783476554390872 0.5080102315080712
lowerback 7.522260873436709 1.6090106638085175 -2.5156487684997364
upperback 1.9180861574869645 1.9962711159538915 -0.0865556493841122
thorax -2.256823194467363 1.0508700821074668 1.2052685111088697
lowerneck -9.093291958273504 -5.529136381121831 -6.4651169464477825
upperneck 30.754382155118435 -8.65531723867182 6.157057969161249
head 11.507908558221315 -3.95093072462861 2.051922519122795
rclavicle -1.4385963723570273E-15 1.8525574309124974E-15
rhumerus -10.112409195383787 4.385362255185154 -79.88545061810052
rradius 52.39759061994513
rwrist -20.86480073376738
rhand -42.03733172629418 15.576974965925897
rfingers 7.125019999999953
rthumb -14.883912168387823 -13.845472543608183
lclavicle -5.769069984245425E-15 1.977170264166094E-15
lhumerus -32.928879156797805 13.85901281974771 73.60543027635777
lradius 24.13748532586113
lwrist -5.678054819797806
lhand -26.23744952828933 21.30194274822374
lfingers 7.125019999999959
lthumb 0.32453413658713104 51.26197653022545
rfemur 6.782030976777701 8.27276387111634 35.21333079633192
rtibia 27.72860780843881
rfoot -20.5379648598626 -7.617031834929733
rtoes 0.11001653628863561
lfemur -33.62911158341351 -0.5394533668133059 -13.058923568175121
ltibia 30.447222037832915
lfoot -4.663385658520236 -2.6519048029927728
ltoes -2.8940474177350906
256
root 0 0 0 -2.1342150143727956 -3.793379681431061 0.5071421796526008
lowerback 7.553305763814746 1.596868543283432 -2.5318975193784223
upperback 1.9091782079430928 1.9798435011326694 -0.0688788708089002
thorax -2.2870783628157647 1.0422430708692643 1.2354218979116776
lowerneck -9.173614747475444 -5.5342047189587795 -6.445080680227154
upperneck 30.981591634861747 -8.668385544718067 6.117463404861343
head 11.583188056219127 -3.955815383681063 2.0358757551818405
rclavicle -1.240047914842784E-15 1.7703946899972158E-15
rhumerus -9.33727252488179 3.2139427829499745 -79.79594748193674
rradius 50.826135744364485
rwrist -20.58964290834503
rhand -42.14342009333693 15.970758086278696
rfingers 7.1250199999999495
rthumb -14.978492689538506 -13.44024068072951
lclavicle -5.784238026643372E-15 1.8729834660832493E-15
lhumerus -32.72767996500161 13.753414577120871 73.91416571167225
lradius 24.19179114654737
lwrist -5.6137544204811824
lhand -26.110320959342193 21.30541984794411
lfingers 7.12501999999996
lthumb 0.44802699584128636 51.265403721546114
rfemur 4.3855191755297955 7.754219939933541 35.151034272607944
rtibia 33.78378759048741
rfoot -17.78730850380717 -7.098080845793531
rtoes -0.46490994941158426
lfemur -31.714343125342843 -0.22037972280205054 -14.566160891427959
ltibia 32.64673270878774
lfoot -3.0258932616751864 -5.1167059476088586
ltoes -1.692775945873473
